<svg width="41" height="41" viewBox="0 0 41 41" fill="none" xmlns="http://www.w3.org/2000/svg">
<path d="M33.894 16.5177C32.9707 14.3492 31.5292 12.4406 29.696 10.9593C27.8628 9.47797 25.6941 8.46933 23.3801 8.02187L25.4704 4.67742L23.3504 3.35242L20.5922 7.76554C17.7827 7.77858 15.0385 8.61444 12.6987 10.1699C10.359 11.7253 8.5262 13.9321 7.42681 16.5177C5.9542 16.5456 4.55135 17.1503 3.51981 18.2016C2.48828 19.253 1.9104 20.667 1.9104 22.1399C1.9104 23.6128 2.48828 25.0269 3.51981 26.0782C4.55135 27.1295 5.9542 27.7342 7.42681 27.7622C8.53088 30.3584 10.3742 32.5724 12.7273 34.1288C15.0803 35.6851 17.8392 36.5149 20.6604 36.5149C23.4816 36.5149 26.2405 35.6851 28.5935 34.1288C30.9466 32.5724 32.7899 30.3584 33.894 27.7622C35.3666 27.7342 36.7695 27.1295 37.801 26.0782C38.8325 25.0269 39.4104 23.6128 39.4104 22.1399C39.4104 20.667 38.8325 19.253 37.801 18.2016C36.7695 17.1503 35.3666 16.5456 33.894 16.5177ZM36.0152 24.3282C35.4435 24.913 34.6642 25.2487 33.8465 25.2627L32.2274 25.2934L31.5935 26.7836C30.6816 28.9286 29.1587 30.758 27.2147 32.044C25.2707 33.3299 22.9913 34.0155 20.6604 34.0155C18.3296 34.0155 16.0502 33.3299 14.1062 32.044C12.1621 30.758 10.6393 28.9286 9.72736 26.7836L9.09345 25.2934L7.47431 25.2627C6.65623 25.2473 5.87683 24.9116 5.30369 24.3276C4.73056 23.7437 4.40947 22.9581 4.40947 22.1399C4.40947 21.3217 4.73056 20.5361 5.30369 19.9522C5.87683 19.3682 6.65623 19.0325 7.47431 19.0172L9.09345 18.9864L9.72736 17.4962C10.6393 15.3512 12.1622 13.5219 14.1062 12.236C16.0502 10.9501 18.3296 10.2644 20.6604 10.2644C22.9913 10.2644 25.2706 10.9501 27.2147 12.236C29.1587 13.5219 30.6815 15.3512 31.5935 17.4962L32.2274 18.9864L33.8465 19.0172C34.4567 19.0287 35.0501 19.2188 35.5534 19.5639C36.0568 19.909 36.448 20.394 36.6787 20.959C36.9094 21.524 36.9695 22.1442 36.8516 22.743C36.7337 23.3417 36.4429 23.8929 36.0152 24.3282Z" fill="white"/>
<path d="M13.7854 19.0149H16.9104V22.1399H13.7854V19.0149Z" fill="white"/>
<path d="M24.4104 19.0149H27.5354V22.1399H24.4104V19.0149Z" fill="white"/>
<path d="M20.6604 30.8899C21.4812 30.8899 22.2939 30.7282 23.0522 30.4141C23.8105 30.1 24.4995 29.6397 25.0798 29.0593C25.6602 28.4789 26.1206 27.7899 26.4346 27.0317C26.7487 26.2734 26.9104 25.4607 26.9104 24.6399H14.4104C14.4104 25.4607 14.5721 26.2734 14.8862 27.0317C15.2002 27.7899 15.6606 28.4789 16.241 29.0593C17.4131 30.2314 19.0028 30.8899 20.6604 30.8899Z" fill="white"/>
</svg>
