<svg width="41" height="41" viewBox="0 0 41 41" fill="none" xmlns="http://www.w3.org/2000/svg">
<g clip-path="url(#clip0_12_198)">
<path d="M7.24674 10.8899V27.5565H15.5801V20.8899C15.5801 20.0058 15.9313 19.158 16.5564 18.5328C17.1815 17.9077 18.0294 17.5565 18.9134 17.5565H27.2467C28.1308 17.5565 28.9786 17.9077 29.6038 18.5328C30.2289 19.158 30.5801 20.0058 30.5801 20.8899V27.5565H33.9134V10.8899H7.24674ZM0.580078 34.2232V30.8899H7.24674C6.36269 30.8899 5.51484 30.5387 4.88972 29.9135C4.2646 29.2884 3.91341 28.4406 3.91341 27.5565V10.8899C3.91341 10.0058 4.2646 9.15795 4.88972 8.53283C5.51484 7.90771 6.36269 7.55652 7.24674 7.55652H33.9134C34.7975 7.55652 35.6453 7.90771 36.2704 8.53283C36.8956 9.15795 37.2467 10.0058 37.2467 10.8899V27.5565C37.2467 28.4406 36.8956 29.2884 36.2704 29.9135C35.6453 30.5387 34.7975 30.8899 33.9134 30.8899H40.5801V34.2232H30.5801C30.5801 35.1072 30.2289 35.9551 29.6038 36.5802C28.9786 37.2053 28.1308 37.5565 27.2467 37.5565H18.9134C18.0294 37.5565 17.1815 37.2053 16.5564 36.5802C15.9313 35.9551 15.5801 35.1072 15.5801 34.2232H0.580078ZM19.7467 34.2232C19.5257 34.2232 19.3138 34.311 19.1575 34.4673C19.0012 34.6235 18.9134 34.8355 18.9134 35.0565C18.9134 35.2775 19.0012 35.4895 19.1575 35.6458C19.3138 35.8021 19.5257 35.8899 19.7467 35.8899C19.9678 35.8899 20.1797 35.8021 20.336 35.6458C20.4923 35.4895 20.5801 35.2775 20.5801 35.0565C20.5801 34.8355 20.4923 34.6235 20.336 34.4673C20.1797 34.311 19.9678 34.2232 19.7467 34.2232ZM26.4134 34.2232C26.1924 34.2232 25.9804 34.311 25.8242 34.4673C25.6679 34.6235 25.5801 34.8355 25.5801 35.0565C25.5801 35.2775 25.6679 35.4895 25.8242 35.6458C25.9804 35.8021 26.1924 35.8899 26.4134 35.8899C26.6344 35.8899 26.8464 35.8021 27.0027 35.6458C27.1589 35.4895 27.2467 35.2775 27.2467 35.0565C27.2467 34.8355 27.1589 34.6235 27.0027 34.4673C26.8464 34.311 26.6344 34.2232 26.4134 34.2232ZM22.2467 34.2232V35.8899H23.9134V34.2232H22.2467ZM18.9134 20.8899V32.5565H27.2467V20.8899H18.9134Z" fill="white"/>
</g>
<defs>
<clipPath id="clip0_12_198">
<rect width="40" height="40" fill="white" transform="translate(0.580078 0.889893)"/>
</clipPath>
</defs>
</svg>
