<svg width="37" height="37" viewBox="0 0 37 37" fill="none" xmlns="http://www.w3.org/2000/svg">
<g clip-path="url(#clip0_328_55)">
<path d="M5.76392 30.9531C5.76392 30.6548 5.88244 30.3686 6.09342 30.1576C6.3044 29.9467 6.59055 29.8281 6.88892 29.8281H29.3889C29.6873 29.8281 29.9734 29.9467 30.1844 30.1576C30.3954 30.3686 30.5139 30.6548 30.5139 30.9531C30.5139 31.2515 30.3954 31.5376 30.1844 31.7486C29.9734 31.9596 29.6873 32.0781 29.3889 32.0781H6.88892C6.59055 32.0781 6.3044 31.9596 6.09342 31.7486C5.88244 31.5376 5.76392 31.2515 5.76392 30.9531ZM31.6187 7.32812L31.6727 7.33037C32.0931 7.359 32.504 7.46823 32.8832 7.65213C33.1562 7.7792 33.3907 7.9764 33.5627 8.22363C33.7134 8.44863 33.8889 8.84688 33.8889 9.57812V23.0579L33.8867 23.1119C33.8578 23.5322 33.7486 23.9432 33.5649 24.3224C33.4377 24.5954 33.2406 24.8298 32.9934 25.0019C32.7684 25.1526 32.3702 25.3281 31.6389 25.3281H4.65917L4.60517 25.3259C4.1848 25.297 3.77387 25.1878 3.39467 25.0041C3.12168 24.877 2.88724 24.6798 2.71517 24.4326C2.56442 24.2076 2.38892 23.8094 2.38892 23.0781V9.59837L2.39117 9.54437C2.41979 9.12397 2.52902 8.713 2.71292 8.33388C2.84008 8.06089 3.03727 7.82645 3.28442 7.65437C3.50942 7.50362 3.90767 7.32812 4.63892 7.32812H31.6187ZM31.6389 5.07812H4.63892C0.138916 5.07812 0.138916 9.57812 0.138916 9.57812V23.0781C0.138916 27.5781 4.63892 27.5781 4.63892 27.5781H31.6389C36.1389 27.5781 36.1389 23.0781 36.1389 23.0781V9.57812C36.1389 5.07812 31.6389 5.07812 31.6389 5.07812Z" fill="white"/>
</g>
<defs>
<clipPath id="clip0_328_55">
<rect width="36" height="36" fill="white" transform="translate(0.138916 0.578125)"/>
</clipPath>
</defs>
</svg>
