<svg width="31" height="31" viewBox="0 0 31 31" fill="none" xmlns="http://www.w3.org/2000/svg">
<g clip-path="url(#clip0_12_175)">
<path fill-rule="evenodd" clip-rule="evenodd" d="M15.5 0.5C13.0255 0.50776 10.6353 1.40025 8.76125 3.01625C7.325 4.25375 6.28437 5.86625 6.01625 7.48438C2.87375 8.17812 0.5 10.9156 0.5 14.2212C0.5 18.0613 3.7025 21.125 7.58938 21.125H14.5625V10.8125C14.5625 10.5639 14.6613 10.3254 14.8371 10.1496C15.0129 9.97377 15.2514 9.875 15.5 9.875C15.7486 9.875 15.9871 9.97377 16.1629 10.1496C16.3387 10.3254 16.4375 10.5639 16.4375 10.8125V21.125H24.29C27.6912 21.125 30.5 18.4438 30.5 15.0744C30.5 12.0069 28.1713 9.5075 25.1863 9.08562C24.7306 4.24813 20.5438 0.5 15.5 0.5ZM14.8363 30.2262C14.9233 30.3136 15.0268 30.3828 15.1407 30.4301C15.2546 30.4773 15.3767 30.5017 15.5 30.5017C15.6233 30.5017 15.7454 30.4773 15.8593 30.4301C15.9732 30.3828 16.0767 30.3136 16.1637 30.2262L21.7887 24.6012C21.9648 24.4252 22.0637 24.1865 22.0637 23.9375C22.0637 23.6885 21.9648 23.4498 21.7887 23.2738C21.6127 23.0977 21.374 22.9988 21.125 22.9988C20.876 22.9988 20.6373 23.0977 20.4613 23.2738L16.4375 27.2994V21.125H14.5625V27.2994L10.5387 23.2738C10.3627 23.0977 10.124 22.9988 9.875 22.9988C9.62605 22.9988 9.38729 23.0977 9.21125 23.2738C9.03521 23.4498 8.93632 23.6885 8.93632 23.9375C8.93632 24.1865 9.03521 24.4252 9.21125 24.6012L14.8363 30.2262Z" fill="white"/>
</g>
<defs>
<clipPath id="clip0_12_175">
<rect width="30" height="30" fill="white" transform="translate(0.5 0.5)"/>
</clipPath>
</defs>
</svg>
