<svg width="36" height="36" viewBox="0 0 36 36" fill="none" xmlns="http://www.w3.org/2000/svg">
<path d="M31.217 29.7238H31.0546C31.4659 29.7238 31.7989 29.3837 31.7989 28.9642V10.8966C31.7989 10.4766 31.4659 10.137 31.0546 10.137H4.05103C3.63978 10.137 3.30618 10.4766 3.30618 10.8966V28.9648C3.30618 29.3842 3.63978 29.7244 4.05103 29.7244H3.87329L1.13892 32.3778C1.13892 33.2884 1.8761 34.1995 2.7779 34.1995H32.313C33.1634 34.1995 33.9514 33.2906 33.9514 32.3773L31.217 29.7238ZM17.5528 10.5608C17.6099 10.5587 17.6667 10.5681 17.7201 10.5885C17.7734 10.6089 17.8221 10.6398 17.8632 10.6794C17.9043 10.719 17.937 10.7665 17.9593 10.8191C17.9817 10.8716 17.9932 10.9281 17.9933 10.9852C17.9933 11.0422 17.9818 11.0987 17.9595 11.1513C17.9373 11.2039 17.9046 11.2514 17.8636 11.291C17.8225 11.3307 17.7739 11.3617 17.7206 11.3821C17.6673 11.4026 17.6104 11.4121 17.5534 11.4101C17.4434 11.4062 17.3392 11.3598 17.2627 11.2807C17.1863 11.2015 17.1435 11.0958 17.1434 10.9857C17.1433 10.8756 17.186 10.7699 17.2623 10.6906C17.3387 10.6113 17.4428 10.5648 17.5528 10.5608V10.5608ZM4.09478 30.2707H30.995L32.6017 31.8304H20.5759L20.3583 31.5417H14.7474L14.5292 31.8304H2.48751L4.09478 30.2707ZM19.9055 33.564H15.1838C15.0219 33.564 14.5909 33.564 14.5909 33.0127H20.4988C20.4988 33.564 20.0592 33.564 19.9055 33.564Z" fill="white"/>
</svg>
