<svg width="37" height="37" viewBox="0 0 37 37" fill="none" xmlns="http://www.w3.org/2000/svg">
<g clip-path="url(#clip0_328_39)">
<path d="M7.71631 4.63623C7.71631 3.44276 8.19041 2.29816 9.03433 1.45425C9.87824 0.610336 11.0228 0.13623 12.2163 0.13623L25.7163 0.13623C26.9098 0.13623 28.0544 0.610336 28.8983 1.45425C29.7422 2.29816 30.2163 3.44276 30.2163 4.63623V31.6362C30.2163 32.8297 29.7422 33.9743 28.8983 34.8182C28.0544 35.6621 26.9098 36.1362 25.7163 36.1362H12.2163C11.0228 36.1362 9.87824 35.6621 9.03433 34.8182C8.19041 33.9743 7.71631 32.8297 7.71631 31.6362V4.63623ZM21.2163 29.3862C21.2163 28.7895 20.9793 28.2172 20.5573 27.7952C20.1353 27.3733 19.563 27.1362 18.9663 27.1362C18.3696 27.1362 17.7973 27.3733 17.3753 27.7952C16.9534 28.2172 16.7163 28.7895 16.7163 29.3862C16.7163 29.983 16.9534 30.5553 17.3753 30.9772C17.7973 31.3992 18.3696 31.6362 18.9663 31.6362C19.563 31.6362 20.1353 31.3992 20.5573 30.9772C20.9793 30.5553 21.2163 29.983 21.2163 29.3862Z" fill="white"/>
</g>
<defs>
<clipPath id="clip0_328_39">
<rect width="36" height="36" fill="white" transform="translate(0.966309 0.13623)"/>
</clipPath>
</defs>
</svg>
