<svg width="37" height="37" viewBox="0 0 37 37" fill="none" xmlns="http://www.w3.org/2000/svg">
<g clip-path="url(#clip0_328_45)">
<path d="M29.3948 0.00830078H7.79482C5.81482 0.00830078 4.19482 1.6265 4.19482 3.6083V32.4083C4.19482 34.3883 5.81482 36.0083 7.79482 36.0083H29.3948C31.3766 36.0083 32.9948 34.3883 32.9948 32.4083V3.6083C32.9948 1.6265 31.3766 0.00830078 29.3948 0.00830078ZM18.5948 34.2083C17.3528 34.2083 16.3448 33.4037 16.3448 32.4083C16.3448 31.4129 17.3528 30.6083 18.5948 30.6083C19.835 30.6083 20.8448 31.4129 20.8448 32.4083C20.8448 33.4037 19.835 34.2083 18.5948 34.2083ZM29.3948 28.8083H7.79482V3.6083H29.3948V28.8083Z" fill="white"/>
</g>
<defs>
<clipPath id="clip0_328_45">
<rect width="36" height="36" fill="white" transform="translate(0.594727 0.00830078)"/>
</clipPath>
</defs>
</svg>
